<?xml version="1.0" encoding="UTF-8" standalone="no"?>
<!-- Created with Inkscape (http://www.inkscape.org/) -->

<svg
   width="149.46596mm"
   height="33.928253mm"
   viewBox="0 0 149.46596 33.928253"
   version="1.1"
   id="svg5"
   inkscape:version="1.1.2 (0a00cf5339, 2022-02-04)"
   sodipodi:docname="openocean-logo1.svg"
   xmlns:inkscape="http://www.inkscape.org/namespaces/inkscape"
   xmlns:sodipodi="http://sodipodi.sourceforge.net/DTD/sodipodi-0.dtd"
   xmlns="http://www.w3.org/2000/svg"
   xmlns:svg="http://www.w3.org/2000/svg">
  <sodipodi:namedview
     id="namedview7"
     pagecolor="#ffffff"
     bordercolor="#666666"
     borderopacity="1.0"
     inkscape:showpageshadow="2"
     inkscape:pageopacity="0.0"
     inkscape:pagecheckerboard="0"
     inkscape:deskcolor="#d1d1d1"
     inkscape:document-units="mm"
     showgrid="false"
     showguides="false"
     inkscape:zoom="1.1162897"
     inkscape:cx="154.08187"
     inkscape:cy="293.38262"
     inkscape:window-width="1697"
     inkscape:window-height="1376"
     inkscape:window-x="26"
     inkscape:window-y="23"
     inkscape:window-maximized="0"
     inkscape:current-layer="layer1"
     inkscape:pageshadow="2" />
  <defs
     id="defs2">
    <rect
       x="194.21339"
       y="196.32976"
       width="758.32672"
       height="120.70299"
       id="rect113" />
  </defs>
  <g
     inkscape:label="Layer 1"
     inkscape:groupmode="layer"
     id="layer1"
     transform="translate(-80.967915,-29.992896)">
    <g
       aria-label="openocean.software"
       transform="matrix(0.26458333,0,0,0.26458333,28.718822,-7.0745158)"
       id="text111"
       style="font-size:64px;line-height:1.25;white-space:pre;shape-inside:url(#rect113);stroke-width:1.00157">
      <path
         d="m 212.70889,254.76208 c 8.384,0 14.784,-6.848 14.784,-16.128 0,-9.92 -6.272,-16.128 -14.912,-16.128 -8.064,0 -15.104,6.336 -15.104,16.32 0,9.472 6.272,15.936 15.232,15.936 z m 0.384,-2.88 c -5.248,0 -9.024,-5.696 -9.024,-13.952 0,-7.296 3.328,-12.416 8.128,-12.416 5.76,0 8.768,6.656 8.768,14.464 0,7.04 -3.072,11.904 -7.872,11.904 z"
         style="font-weight:500;font-family:'Reforma 1918';-inkscape-font-specification:'Reforma 1918 Medium';letter-spacing:0px;word-spacing:-1.49px;fill:#0024d0"
         id="path18" />
      <path
         d="m 232.93287,268.33008 h 11.904 c -3.072,-1.344 -4.096,-2.816 -4.096,-5.376 v -10.624 c 1.984,1.6 4.8,2.432 7.616,2.432 8.384,0 14.592,-6.656 14.592,-16.64 0,-10.432 -5.888,-15.68 -13.12,-15.68 -4.416,0 -7.808,2.304 -9.088,5.568 1.984,-1.408 4.544,-2.048 7.552,-2.048 6.4,0 10.624,4.8 10.624,13.056 0,7.872 -3.712,13.248 -10.432,13.248 -2.816,0 -5.568,-0.576 -7.744,-1.728 v -28.096 l -7.744,3.328 3.648,3.968 v 33.216 c 0,2.56 -0.896,4.032 -3.712,5.376 z"
         style="font-weight:300;font-family:'Reforma 1918';-inkscape-font-specification:'Reforma 1918 Light';letter-spacing:0px;word-spacing:-1.49px"
         id="path20" />
      <path
         d="m 284.96484,254.76208 c 3.776,0 6.464,-0.768 8.192,-2.176 1.088,-0.96 1.856,-2.112 2.176,-3.52 -2.432,1.28 -5.12,2.24 -9.088,2.24 -7.872,0 -11.712,-5.952 -11.712,-13.504 0,-0.512 0,-1.088 0.064,-1.664 h 21.248 c 0,-0.448 0.064,-0.896 0.064,-1.344 0,-8.064 -4.48,-12.352 -11.648,-12.352 -8.32,0 -14.144,6.976 -14.144,16.768 0,9.408 5.504,15.552 14.848,15.552 z m -10.304,-19.904 c 0.448,-5.184 3.2,-9.92 8.448,-9.92 5.248,0 8,3.904 8.064,9.152 z"
         style="font-weight:300;font-family:'Reforma 1918';-inkscape-font-specification:'Reforma 1918 Light'"
         id="path22" />
      <path
         d="m 302.24473,254.25008 h 11.904 c -3.072,-1.344 -3.968,-2.816 -3.968,-5.376 v -26.432 l -7.616,3.328 c 1.152,1.344 2.368,2.624 3.52,3.968 v 19.136 c 0,2.56 -1.024,4.032 -3.84,5.376 z m 19.264,0 h 12.032 c -3.072,-1.344 -3.968,-2.816 -3.968,-5.376 v -16.832 c 0,-5.76 -3.328,-9.6 -9.28,-9.6 -4.864,0 -8.064,2.496 -10.112,6.208 2.432,-1.472 5.184,-2.24 8.32,-2.24 4.672,0 6.848,2.56 6.848,7.104 v 15.36 c 0,2.56 -1.024,4.032 -3.84,5.376 z"
         style="font-weight:300;font-family:'Reforma 1918';-inkscape-font-specification:'Reforma 1918 Light';letter-spacing:0.12px;word-spacing:0.03px"
         id="path24" />
      <path
         d="m 355.22867,254.76208 c 8.384,0 14.784,-6.848 14.784,-16.128 0,-9.92 -6.272,-16.128 -14.912,-16.128 -8.064,0 -15.104,6.336 -15.104,16.32 0,9.472 6.272,15.936 15.232,15.936 z m 0.384,-2.88 c -5.248,0 -9.024,-5.696 -9.024,-13.952 0,-7.296 3.328,-12.416 8.128,-12.416 5.76,0 8.768,6.656 8.768,14.464 0,7.04 -3.072,11.904 -7.872,11.904 z"
         style="font-weight:500;font-family:'Reforma 1918';-inkscape-font-specification:'Reforma 1918 Medium';letter-spacing:0.12px;word-spacing:0.03px;fill:#0024d0"
         id="path26" />
      <path
         d="m 391.76466,254.76208 c 4.736,0 9.024,-1.6 9.984,-5.44 -2.048,1.216 -4.8,2.176 -8.384,2.176 -7.552,0 -11.84,-5.632 -11.84,-14.656 0,-6.784 3.456,-12.16 9.408,-12.16 3.968,0 7.552,1.984 10.432,4.864 -0.192,-1.792 -0.448,-3.584 -0.64,-5.376 -2.24,-0.96 -5.056,-1.728 -8.576,-1.728 -8.448,0 -15.232,6.08 -15.232,16.704 0,10.432 6.784,15.616 14.848,15.616 z"
         style="font-weight:300;font-family:'Reforma 1918';-inkscape-font-specification:'Reforma 1918 Light'"
         id="path28" />
      <path
         d="m 420.18055,254.76208 c 3.776,0 6.464,-0.768 8.192,-2.176 1.088,-0.96 1.856,-2.112 2.176,-3.52 -2.432,1.28 -5.12,2.24 -9.088,2.24 -7.872,0 -11.712,-5.952 -11.712,-13.504 0,-0.512 0,-1.088 0.064,-1.664 h 21.248 c 0,-0.448 0.064,-0.896 0.064,-1.344 0,-8.064 -4.48,-12.352 -11.648,-12.352 -8.32,0 -14.144,6.976 -14.144,16.768 0,9.408 5.504,15.552 14.848,15.552 z m -10.304,-19.904 c 0.448,-5.184 3.2,-9.92 8.448,-9.92 5.248,0 8,3.904 8.064,9.152 z"
         style="font-weight:300;font-family:'Reforma 1918';-inkscape-font-specification:'Reforma 1918 Light'"
         id="path30" />
      <path
         d="m 445.65244,254.76208 c 4.736,0 7.168,-2.24 8.384,-5.376 -1.536,1.344 -3.584,2.048 -6.464,2.048 -3.456,0 -6.016,-1.92 -6.016,-5.568 0,-2.816 1.856,-3.84 4.416,-4.16 l 8.192,-0.96 c 0,1.664 -0.064,3.584 -0.064,8.64 0,3.328 1.92,5.376 4.992,5.376 1.728,0 2.944,-0.576 3.712,-1.472 0.704,-0.832 1.024,-1.984 1.024,-3.2 -0.832,0.832 -1.792,1.344 -3.328,1.344 -1.792,0 -2.624,-1.088 -2.624,-2.816 0,-5.376 0.64,-11.904 0.64,-17.536 0,-5.824 -3.456,-8.64 -9.856,-8.64 -4.224,0 -7.552,1.28 -9.216,3.52 -0.832,1.088 -1.28,2.56 -1.28,4.224 2.944,-2.944 6.208,-4.224 10.24,-4.224 4.288,0 6.08,1.792 6.08,5.696 0,2.624 -0.128,4.992 -0.256,6.784 l -8.128,1.664 c -4.608,0.96 -8.384,2.688 -8.384,7.552 0,4.48 3.2,7.104 7.936,7.104 z"
         style="font-weight:300;font-family:'Reforma 1918';-inkscape-font-specification:'Reforma 1918 Light'"
         id="path32" />
      <path
         d="m 469.71629,254.25008 h 11.904 c -3.072,-1.344 -3.968,-2.816 -3.968,-5.376 v -26.432 l -7.616,3.328 c 1.152,1.344 2.368,2.624 3.52,3.968 v 19.136 c 0,2.56 -1.024,4.032 -3.84,5.376 z m 19.264,0 h 12.032 c -3.072,-1.344 -3.968,-2.816 -3.968,-5.376 v -16.832 c 0,-5.76 -3.328,-9.6 -9.28,-9.6 -4.864,0 -8.064,2.496 -10.112,6.208 2.432,-1.472 5.184,-2.24 8.32,-2.24 4.672,0 6.848,2.56 6.848,7.104 v 15.36 c 0,2.56 -1.024,4.032 -3.84,5.376 z"
         style="font-weight:300;font-family:'Reforma 1918';-inkscape-font-specification:'Reforma 1918 Light'"
         id="path34" />
      <path
         d="m 512.08423,254.89008 c 2.56,0 4.736,-2.112 4.736,-4.8 0,-2.624 -2.304,-4.8 -4.736,-4.8 -2.624,0 -4.736,2.176 -4.736,4.8 0,2.56 2.304,4.8 4.736,4.8 z"
         style="font-weight:bold;font-family:'Reforma 1918';-inkscape-font-specification:'Reforma 1918 Bold';fill:#0024d0"
         id="path36" />
      <path
         d="m 533.84411,254.76208 c 5.952,0 10.048,-3.328 10.048,-8.512 0,-6.08 -5.76,-8.576 -10.56,-10.624 -3.328,-1.408 -6.208,-2.624 -6.208,-4.736 0,-3.2 2.688,-5.184 6.336,-5.184 4.096,0 7.296,1.28 9.92,4.288 0.064,-0.512 0.064,-1.088 0,-1.536 -0.448,-3.776 -4.096,-6.016 -9.408,-6.016 -5.184,0 -9.792,3.136 -9.792,9.216 0,6.528 6.08,9.024 10.88,10.944 3.136,1.28 5.76,2.368 5.76,4.224 0,3.2 -2.624,5.056 -6.464,5.056 -4.16,0 -7.36,-1.472 -10.112,-4.928 -0.064,0.64 0,1.216 0.064,1.792 0.576,4.224 4.544,6.016 9.536,6.016 z"
         style="font-weight:300;font-family:'Reforma 1918';-inkscape-font-specification:'Reforma 1918 Light'"
         id="path38" />
      <path
         d="m 566.54804,254.76208 c 8,0 14.592,-6.528 14.592,-16.128 0,-9.92 -6.4,-16.128 -14.72,-16.128 -7.808,0 -14.848,6.4 -14.848,16.448 0,9.6 6.464,15.808 14.976,15.808 z m 0.576,-2.368 c -6.336,0 -10.624,-6.208 -10.624,-14.656 0,-7.232 3.648,-12.736 9.408,-12.736 6.976,0 10.304,7.808 10.304,15.296 0,6.976 -3.584,12.096 -9.088,12.096 z"
         style="font-weight:300;font-family:'Reforma 1918';-inkscape-font-specification:'Reforma 1918 Light'"
         id="path40" />
      <path
         d="m 596.372,223.78608 c 0,-3.136 -0.448,-7.808 -0.448,-11.456 0,-3.264 1.856,-4.928 4.288,-4.928 2.688,0 5.504,1.088 7.872,3.008 -0.192,-1.856 -0.384,-3.392 -0.576,-5.376 -1.472,-0.384 -3.136,-0.704 -5.056,-0.704 -6.272,0 -10.304,5.184 -10.304,11.968 v 7.744 h -4.416 l -0.256,2.432 h 4.736 l 0.064,22.4 c 0,2.56 -1.088,4.032 -3.904,5.376 h 12.032 c -2.88,-1.28 -4.032,-2.624 -4.032,-5.376 v -22.4 h 6.848 l 0.32,-2.432 h -7.168 z"
         style="font-weight:300;font-family:'Reforma 1918';-inkscape-font-specification:'Reforma 1918 Light'"
         id="path42" />
      <path
         d="m 620.49994,254.76208 c 4.032,0 6.848,-1.664 7.296,-5.056 -1.6,1.024 -3.584,1.728 -6.208,1.728 -3.264,0 -5.248,-1.856 -5.248,-5.248 v -19.712 h 10.88 l 0.32,-2.432 h -11.136 v -6.08 l -8.32,8.512 h 4.288 l -0.128,19.648 c -0.064,5.632 3.136,8.64 8.256,8.64 z"
         style="font-weight:300;font-family:'Reforma 1918';-inkscape-font-specification:'Reforma 1918 Light'"
         id="path44" />
      <path
         d="m 668.24386,223.14608 2.88,3.328 -7.168,22.528 h -0.256 l -8.384,-22.528 1.984,-3.328 h -8.768 l 2.624,4.416 0.576,1.6 -7.488,19.84 h -0.256 l -6.848,-22.528 1.984,-3.328 h -9.024 l 2.624,4.416 6.4,20.416 c 0.768,2.432 1.344,4.352 1.344,6.272 h 4.992 c 0,-1.792 0.576,-4.352 1.216,-5.952 l 6.208,-16.064 5.952,15.744 c 0.896,2.432 1.344,4.352 1.344,6.272 h 4.992 c 0,-1.792 0.704,-4.352 1.216,-5.952 l 7.04,-20.992 2.496,-4.16 z"
         style="font-weight:300;font-family:'Reforma 1918';-inkscape-font-specification:'Reforma 1918 Light'"
         id="path46" />
      <path
         d="m 688.97982,254.76208 c 4.736,0 7.168,-2.24 8.384,-5.376 -1.536,1.344 -3.584,2.048 -6.464,2.048 -3.456,0 -6.016,-1.92 -6.016,-5.568 0,-2.816 1.856,-3.84 4.416,-4.16 l 8.192,-0.96 c 0,1.664 -0.064,3.584 -0.064,8.64 0,3.328 1.92,5.376 4.992,5.376 1.728,0 2.944,-0.576 3.712,-1.472 0.704,-0.832 1.024,-1.984 1.024,-3.2 -0.832,0.832 -1.792,1.344 -3.328,1.344 -1.792,0 -2.624,-1.088 -2.624,-2.816 0,-5.376 0.64,-11.904 0.64,-17.536 0,-5.824 -3.456,-8.64 -9.856,-8.64 -4.224,0 -7.552,1.28 -9.216,3.52 -0.832,1.088 -1.28,2.56 -1.28,4.224 2.944,-2.944 6.208,-4.224 10.24,-4.224 4.288,0 6.08,1.792 6.08,5.696 0,2.624 -0.128,4.992 -0.256,6.784 l -8.128,1.664 c -4.608,0.96 -8.384,2.688 -8.384,7.552 0,4.48 3.2,7.104 7.936,7.104 z"
         style="font-weight:300;font-family:'Reforma 1918';-inkscape-font-specification:'Reforma 1918 Light'"
         id="path48" />
      <path
         d="m 713.04368,254.25008 h 12.096 c -3.328,-1.344 -4.224,-2.816 -4.224,-5.376 v -26.432 l -7.616,3.328 c 1.152,1.344 2.368,2.624 3.52,3.968 v 19.136 c 0,2.56 -0.64,4.032 -3.776,5.376 z m 19.968,-25.6 -0.768,-5.952 c -0.576,-0.128 -1.344,-0.256 -2.304,-0.256 -3.904,0 -7.168,2.368 -9.024,6.208 2.176,-1.344 4.032,-1.984 6.208,-1.984 2.24,0 4.224,0.768 5.888,1.984 z"
         style="font-weight:300;font-family:'Reforma 1918';-inkscape-font-specification:'Reforma 1918 Light'"
         id="path50" />
      <path
         d="m 751.4436,254.76208 c 3.776,0 6.464,-0.768 8.192,-2.176 1.088,-0.96 1.856,-2.112 2.176,-3.52 -2.432,1.28 -5.12,2.24 -9.088,2.24 -7.872,0 -11.712,-5.952 -11.712,-13.504 0,-0.512 0,-1.088 0.064,-1.664 h 21.248 c 0,-0.448 0.064,-0.896 0.064,-1.344 0,-8.064 -4.48,-12.352 -11.648,-12.352 -8.32,0 -14.144,6.976 -14.144,16.768 0,9.408 5.504,15.552 14.848,15.552 z m -10.304,-19.904 c 0.448,-5.184 3.2,-9.92 8.448,-9.92 5.248,0 8,3.904 8.064,9.152 z"
         style="font-weight:300;font-family:'Reforma 1918';-inkscape-font-specification:'Reforma 1918 Light'"
         id="path52" />
    </g>
    <path
       style="fill:none;stroke:#ccd5ff;stroke-width:0.965;stroke-linecap:butt;stroke-linejoin:miter;stroke-dasharray:none;stroke-opacity:1"
       d="M 81.710487,44.222529 C 217.29603,44.179143 185.11418,20.56648 205.21438,35.329931 c 19.79682,14.540616 24.80654,9.648836 24.80654,9.648836"
       id="path1319"
       sodipodi:nodetypes="csc" />
  </g>
</svg>
